<svg width="1024" height="1024" viewBox="0 0 1024 1024" fill="none" xmlns="http://www.w3.org/2000/svg">
<rect width="1024" height="1024" fill="#3243AE"/>
<g opacity="0.3">
<path d="M725.776 456.293C725.776 349.546 648.535 261.186 547.46 244.198C528.057 240.937 511.987 225.299 511.987 205.624C511.987 185.95 528.017 169.765 547.54 172.204C688.31 189.787 797.025 310.414 797.025 456.293V533.37C797.025 553.045 781.076 568.994 761.401 568.994C741.726 568.994 725.776 553.045 725.776 533.37V456.293Z" fill="#F1F5FD"/>
<path d="M414.488 187.162C315.801 223.073 242.463 311.488 229.127 419.445C226.715 438.972 242.899 454.991 262.574 454.991C282.249 454.991 297.885 438.927 301.104 419.517C313.356 345.621 363.296 284.998 430.562 257.325C448.757 249.839 460.937 231.013 456.562 211.83C452.187 192.648 432.976 180.435 414.488 187.162Z" fill="#F1F5FD"/>
<path d="M298.198 567.698V547.62C298.198 527.945 282.249 511.995 262.574 511.995C242.899 511.995 226.949 527.945 226.949 547.62V567.698C226.949 725.645 354.397 853.99 511.987 853.99C635.364 853.99 740.23 775.326 779.975 665.423C786.666 646.921 774.411 627.736 755.22 623.403C736.028 619.07 717.227 631.29 709.777 649.5C677.752 727.774 601.15 782.741 511.987 782.741C394.083 782.741 298.198 686.632 298.198 567.698Z" fill="#F1F5FD"/>
</g>
<g opacity="0.6">
<path d="M511.983 295.359C461.652 295.359 416.838 318.634 387.492 354.89C375.113 370.183 382.603 391.893 400.239 400.613C417.876 409.334 438.945 401.289 453.794 388.381C469.439 374.782 489.796 366.608 511.983 366.608C548.861 366.608 580.658 389.234 594.155 421.602C601.728 439.761 617.014 456.318 636.689 456.318C656.364 456.318 672.72 440.169 668.431 420.967C652.396 349.178 588.561 295.359 511.983 295.359Z" fill="#F1F5FD"/>
<path d="M601.064 567.717V547.639C601.064 527.964 617.014 512.015 636.689 512.015C656.364 512.015 672.313 527.964 672.313 547.639V567.717C672.313 644.294 618.971 708.585 547.328 724.757C528.136 729.089 511.983 712.728 511.983 693.053C511.983 673.378 528.559 658.083 546.66 650.371C578.57 636.774 601.064 604.975 601.064 567.717Z" fill="#F1F5FD"/>
<path d="M422.908 567.717V490.64C422.908 470.965 406.959 455.016 387.284 455.016C367.609 455.016 351.659 470.965 351.659 490.64V567.717C351.659 618.084 374.716 663.061 410.803 692.571C426.034 705.026 447.774 697.625 456.565 680.024C465.356 662.423 457.404 641.304 444.584 626.379C431.076 610.652 422.908 590.151 422.908 567.717Z" fill="#F1F5FD"/>
</g>
<path fill-rule="evenodd" clip-rule="evenodd" d="M512.01 426.52C492.335 426.52 476.386 442.469 476.386 462.144V561.893C476.386 581.567 492.335 597.517 512.01 597.517C531.685 597.517 547.635 581.567 547.635 561.893V462.144C547.635 442.469 531.685 426.52 512.01 426.52Z" fill="#F1F5FD"/>
</svg>
